<mxfile host="app.diagrams.net" modified="2022-09-14T07:43:01.879Z" agent="5.0 (Windows NT 10.0; Win64; x64) AppleWebKit/537.36 (KHTML, like Gecko) Chrome/105.0.0.0 Safari/537.36" etag="36gL5myJhjTAnYYsgkH_" version="20.3.0" type="github">
  <diagram id="5DqVILgo3Mf3WM3vC6di" name="Page-1">
    <mxGraphModel dx="1422" dy="794" grid="1" gridSize="10" guides="1" tooltips="1" connect="1" arrows="1" fold="1" page="1" pageScale="1" pageWidth="827" pageHeight="1169" math="0" shadow="0">
      <root>
        <mxCell id="0" />
        <mxCell id="1" parent="0" />
        <mxCell id="1lB4zGCRoAUqEfI1bq9f-1" value="" style="shape=image;verticalLabelPosition=bottom;labelBackgroundColor=default;verticalAlign=top;aspect=fixed;imageAspect=0;image=https://www.premiere.fr/sites/default/files/styles/scale_crop_1280x720/public/2020-04/shrekletroisieme.jpg;" vertex="1" parent="1">
          <mxGeometry x="660" y="489.75" width="130" height="73.25" as="geometry" />
        </mxCell>
      </root>
    </mxGraphModel>
  </diagram>
</mxfile>
